<mxfile host="app.diagrams.net" modified="2024-05-24T13:59:38.520Z" agent="Mozilla/5.0 (Windows NT 10.0; Win64; x64) AppleWebKit/537.36 (KHTML, like Gecko) Chrome/121.0.0.0 Safari/537.36" etag="MbswXZOPyFT4vSZqfiwn" version="24.4.7" type="device">
  <diagram name="Página-1" id="fzBaSC32xhZnemHiDt31">
    <mxGraphModel dx="1434" dy="782" grid="1" gridSize="10" guides="1" tooltips="1" connect="1" arrows="1" fold="1" page="1" pageScale="1" pageWidth="827" pageHeight="1169" math="0" shadow="0">
      <root>
        <mxCell id="0" />
        <mxCell id="1" parent="0" />
        <mxCell id="rr6VjP5Ene6Xwm0-y9D6-5" value="" style="edgeStyle=orthogonalEdgeStyle;rounded=0;orthogonalLoop=1;jettySize=auto;html=1;" edge="1" parent="1" source="rr6VjP5Ene6Xwm0-y9D6-1" target="rr6VjP5Ene6Xwm0-y9D6-3">
          <mxGeometry relative="1" as="geometry" />
        </mxCell>
        <mxCell id="rr6VjP5Ene6Xwm0-y9D6-1" value="início" style="ellipse;whiteSpace=wrap;html=1;" vertex="1" parent="1">
          <mxGeometry x="360" y="10" width="120" height="70" as="geometry" />
        </mxCell>
        <mxCell id="rr6VjP5Ene6Xwm0-y9D6-12" value="" style="edgeStyle=orthogonalEdgeStyle;rounded=0;orthogonalLoop=1;jettySize=auto;html=1;" edge="1" parent="1" source="rr6VjP5Ene6Xwm0-y9D6-3" target="rr6VjP5Ene6Xwm0-y9D6-7">
          <mxGeometry relative="1" as="geometry" />
        </mxCell>
        <mxCell id="rr6VjP5Ene6Xwm0-y9D6-3" value="lista de fornecedor" style="rounded=0;whiteSpace=wrap;html=1;" vertex="1" parent="1">
          <mxGeometry x="360" y="120" width="120" height="50" as="geometry" />
        </mxCell>
        <mxCell id="rr6VjP5Ene6Xwm0-y9D6-10" value="" style="edgeStyle=orthogonalEdgeStyle;rounded=0;orthogonalLoop=1;jettySize=auto;html=1;" edge="1" parent="1" source="rr6VjP5Ene6Xwm0-y9D6-7" target="rr6VjP5Ene6Xwm0-y9D6-9">
          <mxGeometry relative="1" as="geometry" />
        </mxCell>
        <mxCell id="rr6VjP5Ene6Xwm0-y9D6-13" value="não" style="edgeLabel;html=1;align=center;verticalAlign=middle;resizable=0;points=[];" vertex="1" connectable="0" parent="rr6VjP5Ene6Xwm0-y9D6-10">
          <mxGeometry x="-0.35" y="2" relative="1" as="geometry">
            <mxPoint as="offset" />
          </mxGeometry>
        </mxCell>
        <mxCell id="rr6VjP5Ene6Xwm0-y9D6-7" value="fornecedor cadastrado?" style="strokeWidth=2;html=1;shape=mxgraph.flowchart.decision;whiteSpace=wrap;" vertex="1" parent="1">
          <mxGeometry x="370" y="210" width="100" height="100" as="geometry" />
        </mxCell>
        <mxCell id="rr6VjP5Ene6Xwm0-y9D6-15" value="" style="edgeStyle=orthogonalEdgeStyle;rounded=0;orthogonalLoop=1;jettySize=auto;html=1;" edge="1" parent="1" source="rr6VjP5Ene6Xwm0-y9D6-9" target="rr6VjP5Ene6Xwm0-y9D6-14">
          <mxGeometry relative="1" as="geometry" />
        </mxCell>
        <mxCell id="rr6VjP5Ene6Xwm0-y9D6-9" value="criação de cadastro" style="rounded=0;whiteSpace=wrap;html=1;" vertex="1" parent="1">
          <mxGeometry x="360" y="350" width="120" height="50" as="geometry" />
        </mxCell>
        <mxCell id="rr6VjP5Ene6Xwm0-y9D6-21" value="" style="edgeStyle=orthogonalEdgeStyle;rounded=0;orthogonalLoop=1;jettySize=auto;html=1;" edge="1" parent="1" source="rr6VjP5Ene6Xwm0-y9D6-14" target="rr6VjP5Ene6Xwm0-y9D6-17">
          <mxGeometry relative="1" as="geometry" />
        </mxCell>
        <mxCell id="rr6VjP5Ene6Xwm0-y9D6-22" value="não" style="edgeLabel;html=1;align=center;verticalAlign=middle;resizable=0;points=[];" vertex="1" connectable="0" parent="rr6VjP5Ene6Xwm0-y9D6-21">
          <mxGeometry x="-0.2" y="1" relative="1" as="geometry">
            <mxPoint as="offset" />
          </mxGeometry>
        </mxCell>
        <mxCell id="rr6VjP5Ene6Xwm0-y9D6-14" value="dados validos?" style="strokeWidth=2;html=1;shape=mxgraph.flowchart.decision;whiteSpace=wrap;" vertex="1" parent="1">
          <mxGeometry x="370" y="430" width="100" height="100" as="geometry" />
        </mxCell>
        <mxCell id="rr6VjP5Ene6Xwm0-y9D6-19" style="edgeStyle=orthogonalEdgeStyle;rounded=0;orthogonalLoop=1;jettySize=auto;html=1;entryX=0;entryY=0.75;entryDx=0;entryDy=0;" edge="1" parent="1" source="rr6VjP5Ene6Xwm0-y9D6-17" target="rr6VjP5Ene6Xwm0-y9D6-9">
          <mxGeometry relative="1" as="geometry">
            <Array as="points">
              <mxPoint x="420" y="640" />
              <mxPoint x="340" y="640" />
              <mxPoint x="340" y="388" />
            </Array>
          </mxGeometry>
        </mxCell>
        <mxCell id="rr6VjP5Ene6Xwm0-y9D6-17" value="mostrar erro" style="rounded=0;whiteSpace=wrap;html=1;" vertex="1" parent="1">
          <mxGeometry x="360" y="570" width="120" height="50" as="geometry" />
        </mxCell>
      </root>
    </mxGraphModel>
  </diagram>
</mxfile>
